HIERARCHY
ROOT Hips
{
  OFFSET 0.000000 95.000000 0.000000
  CHANNELS 6 Xposition Yposition Zposition Zrotation Xrotation Yrotation
  JOINT Spine
  {
    OFFSET 0.000000 10.000000 0.000000
    CHANNELS 3 Zrotation Xrotation Yrotation
    JOINT Spine1
    {
      OFFSET 0.000000 12.000000 0.000000
      CHANNELS 3 Zrotation Xrotation Yrotation
      JOINT Spine2
      {
        OFFSET 0.000000 12.000000 0.000000
        CHANNELS 3 Zrotation Xrotation Yrotation
        JOINT Neck
        {
          OFFSET 0.000000 10.000000 0.000000
          CHANNELS 3 Zrotation Xrotation Yrotation
          JOINT Head
          {
            OFFSET 0.000000 8.000000 0.000000
            CHANNELS 3 Zrotation Xrotation Yrotation
            End Site
            {
              OFFSET 0.000000 10.000000 0.000000
            }
          }
        }
        JOINT LeftShoulder
        {
          OFFSET 6.000000 8.000000 0.000000
          CHANNELS 3 Zrotation Xrotation Yrotation
          JOINT LeftArm
          {
            OFFSET 12.000000 0.000000 0.000000
            CHANNELS 3 Zrotation Xrotation Yrotation
            JOINT LeftForeArm
            {
              OFFSET 24.000000 0.000000 0.000000
              CHANNELS 3 Zrotation Xrotation Yrotation
              JOINT LeftHand
              {
                OFFSET 22.000000 0.000000 0.000000
                CHANNELS 3 Zrotation Xrotation Yrotation
                JOINT LeftHandThumb1
                {
                  OFFSET 1.800000 -1.400000 0.500000
                  CHANNELS 3 Zrotation Xrotation Yrotation
                  JOINT LeftHandThumb2
                  {
                    OFFSET 2.400000 0.000000 0.000000
                    CHANNELS 3 Zrotation Xrotation Yrotation
                    JOINT LeftHandThumb3
                    {
                      OFFSET 1.900000 0.000000 0.000000
                      CHANNELS 3 Zrotation Xrotation Yrotation
                      End Site
                      {
                        OFFSET 1.600000 0.000000 0.000000
                      }
                    }
                  }
                }
                JOINT LeftHandIndex1
                {
                  OFFSET 6.600000 1.200000 0.300000
                  CHANNELS 3 Zrotation Xrotation Yrotation
                  JOINT LeftHandIndex2
                  {
                    OFFSET 2.000000 0.000000 0.000000
                    CHANNELS 3 Zrotation Xrotation Yrotation
                    JOINT LeftHandIndex3
                    {
                      OFFSET 1.200000 0.000000 0.000000
                      CHANNELS 3 Zrotation Xrotation Yrotation
                      End Site
                      {
                        OFFSET 1.000000 0.000000 0.000000
                      }
                    }
                  }
                }
                JOINT LeftHandMiddle1
                {
                  OFFSET 7.200000 0.000000 0.300000
                  CHANNELS 3 Zrotation Xrotation Yrotation
                  JOINT LeftHandMiddle2
                  {
                    OFFSET 3.000000 0.000000 0.000000
                    CHANNELS 3 Zrotation Xrotation Yrotation
                    JOINT LeftHandMiddle3
                    {
                      OFFSET 2.000000 0.000000 0.000000
                      CHANNELS 3 Zrotation Xrotation Yrotation
                      End Site
                      {
                        OFFSET 1.600000 0.000000 0.000000
                      }
                    }
                  }
                }
                JOINT LeftHandRing1
                {
                  OFFSET 7.100000 -1.000000 0.400000
                  CHANNELS 3 Zrotation Xrotation Yrotation
                  JOINT LeftHandRing2
                  {
                    OFFSET 2.600000 0.000000 0.000000
                    CHANNELS 3 Zrotation Xrotation Yrotation
                    JOINT LeftHandRing3
                    {
                      OFFSET 1.600000 0.000000 0.000000
                      CHANNELS 3 Zrotation Xrotation Yrotation
                      End Site
                      {
                        OFFSET 1.300000 0.000000 0.000000
                      }
                    }
                  }
                }
                JOINT LeftHandPinky1
                {
                  OFFSET 6.500000 -2.000000 0.500000
                  CHANNELS 3 Zrotation Xrotation Yrotation
                  JOINT LeftHandPinky2
                  {
                    OFFSET 1.900000 0.000000 0.000000
                    CHANNELS 3 Zrotation Xrotation Yrotation
                    JOINT LeftHandPinky3
                    {
                      OFFSET 1.400000 0.000000 0.000000
                      CHANNELS 3 Zrotation Xrotation Yrotation
                      End Site
                      {
                        OFFSET 1.300000 0.000000 0.000000
                      }
                    }
                  }
                }
              }
            }
          }
        }
        JOINT RightShoulder
        {
          OFFSET -6.000000 8.000000 0.000000
          CHANNELS 3 Zrotation Xrotation Yrotation
          JOINT RightArm
          {
            OFFSET -12.000000 0.000000 0.000000
            CHANNELS 3 Zrotation Xrotation Yrotation
            JOINT RightForeArm
            {
              OFFSET -24.000000 0.000000 0.000000
              CHANNELS 3 Zrotation Xrotation Yrotation
              JOINT RightHand
              {
                OFFSET -22.000000 0.000000 0.000000
                CHANNELS 3 Zrotation Xrotation Yrotation
                JOINT RightHandThumb1
                {
                  OFFSET -1.800000 -1.400000 0.500000
                  CHANNELS 3 Zrotation Xrotation Yrotation
                  JOINT RightHandThumb2
                  {
                    OFFSET -2.400000 0.000000 0.000000
                    CHANNELS 3 Zrotation Xrotation Yrotation
                    JOINT RightHandThumb3
                    {
                      OFFSET -1.900000 0.000000 0.000000
                      CHANNELS 3 Zrotation Xrotation Yrotation
                      End Site
                      {
                        OFFSET -1.600000 0.000000 0.000000
                      }
                    }
                  }
                }
                JOINT RightHandIndex1
                {
                  OFFSET -6.600000 1.200000 0.300000
                  CHANNELS 3 Zrotation Xrotation Yrotation
                  JOINT RightHandIndex2
                  {
                    OFFSET -2.000000 0.000000 0.000000
                    CHANNELS 3 Zrotation Xrotation Yrotation
                    JOINT RightHandIndex3
                    {
                      OFFSET -1.200000 0.000000 0.000000
                      CHANNELS 3 Zrotation Xrotation Yrotation
                      End Site
                      {
                        OFFSET -1.000000 0.000000 0.000000
                      }
                    }
                  }
                }
                JOINT RightHandMiddle1
                {
                  OFFSET -7.200000 0.000000 0.300000
                  CHANNELS 3 Zrotation Xrotation Yrotation
                  JOINT RightHandMiddle2
                  {
                    OFFSET -3.000000 0.000000 0.000000
                    CHANNELS 3 Zrotation Xrotation Yrotation
                    JOINT RightHandMiddle3
                    {
                      OFFSET -2.000000 0.000000 0.000000
                      CHANNELS 3 Zrotation Xrotation Yrotation
                      End Site
                      {
                        OFFSET -1.600000 0.000000 0.000000
                      }
                    }
                  }
                }
                JOINT RightHandRing1
                {
                  OFFSET -7.100000 -1.000000 0.400000
                  CHANNELS 3 Zrotation Xrotation Yrotation
                  JOINT RightHandRing2
                  {
                    OFFSET -2.600000 0.000000 0.000000
                    CHANNELS 3 Zrotation Xrotation Yrotation
                    JOINT RightHandRing3
                    {
                      OFFSET -1.600000 0.000000 0.000000
                      CHANNELS 3 Zrotation Xrotation Yrotation
                      End Site
                      {
                        OFFSET -1.300000 0.000000 0.000000
                      }
                    }
                  }
                }
                JOINT RightHandPinky1
                {
                  OFFSET -6.500000 -2.000000 0.500000
                  CHANNELS 3 Zrotation Xrotation Yrotation
                  JOINT RightHandPinky2
                  {
                    OFFSET -1.900000 0.000000 0.000000
                    CHANNELS 3 Zrotation Xrotation Yrotation
                    JOINT RightHandPinky3
                    {
                      OFFSET -1.400000 0.000000 0.000000
                      CHANNELS 3 Zrotation Xrotation Yrotation
                      End Site
                      {
                        OFFSET -1.300000 0.000000 0.000000
                      }
                    }
                  }
                }
              }
            }
          }
        }
      }
    }
  }
  JOINT LeftUpLeg
  {
    OFFSET 10.000000 -5.000000 0.000000
    CHANNELS 3 Zrotation Xrotation Yrotation
    JOINT LeftLeg
    {
      OFFSET 0.000000 -42.000000 0.000000
      CHANNELS 3 Zrotation Xrotation Yrotation
      JOINT LeftFoot
      {
        OFFSET 0.000000 -42.000000 4.000000
        CHANNELS 3 Zrotation Xrotation Yrotation
        End Site
        {
          OFFSET 0.000000 0.000000 12.000000
        }
      }
    }
  }
  JOINT RightUpLeg
  {
    OFFSET -10.000000 -5.000000 0.000000
    CHANNELS 3 Zrotation Xrotation Yrotation
    JOINT RightLeg
    {
      OFFSET 0.000000 -42.000000 0.000000
      CHANNELS 3 Zrotation Xrotation Yrotation
      JOINT RightFoot
      {
        OFFSET 0.000000 -42.000000 4.000000
        CHANNELS 3 Zrotation Xrotation Yrotation
        End Site
        {
          OFFSET 0.000000 0.000000 12.000000
        }
      }
    }
  }
}
MOTION
Frames: 7
Frame Time: 0.033333
0.0000 95.0000 0.0000 0.0000 0.0000 0.0000 0.0000 0.0000 0.0000 0.0000 0.0000 0.0000 0.0000 0.0000 0.0000 0.0000 0.0000 0.0000 0.0000 0.0000 0.0000 0.0000 0.0000 0.0000 -79.4270 10.7213 12.8909 -8.3892 5.6171 -5.6786 -170.1419 19.1978 172.7088 51.3785 -10.3460 3.8875 12.1749 0.0000 0.0000 1.8904 0.0000 0.0000 -2.9754 0.3501 -1.3901 11.4096 0.0000 0.0000 6.6156 0.0000 0.0000 8.3736 -0.1111 -3.2548 16.1127 0.0000 0.0000 8.3935 0.0000 0.0000 14.2599 -0.8326 -2.5882 19.8847 0.0000 0.0000 10.5777 0.0000 0.0000 19.6151 -1.5412 -0.7439 18.0362 0.0000 0.0000 19.6245 0.0000 0.0000 0.0000 0.0000 0.0000 87.0949 -0.8276 0.8707 2.9534 10.6451 11.8129 169.5791 37.5685 165.8161 -51.5536 -10.1281 -5.1885 6.1070 0.0000 0.0000 8.1453 0.0000 0.0000 7.5429 0.2026 -1.1944 1.1417 0.0000 0.0000 2.3142 0.0000 0.0000 -4.3493 -0.1244 1.4958 4.5606 0.0000 0.0000 1.2242 0.0000 0.0000 -15.3508 -0.8640 1.8436 4.6022 0.0000 0.0000 5.3993 0.0000 0.0000 -28.8460 -2.2971 4.3305 5.9537 0.0000 0.0000 5.1084 0.0000 0.0000 0.0000 0.0000 0.0000 0.0000 0.0000 0.0000 0.0000 0.0000 0.0000 0.0000 0.0000 0.0000 0.0000 0.0000 0.0000 0.0000 0.0000 0.0000
0.0000 95.0000 0.0000 0.0000 0.0000 0.0000 0.0000 0.0000 0.0000 0.0000 0.0000 0.0000 0.0000 0.0000 0.0000 0.0000 0.0000 0.0000 0.0000 0.0000 0.0000 0.0000 0.0000 0.0000 -80.2490 10.1730 12.0574 -7.7131 6.0101 -6.3328 -170.0868 18.3333 173.5756 50.7985 -10.2223 3.8791 11.9007 0.0000 0.0000 2.2833 0.0000 0.0000 -3.4228 0.3466 -1.2705 11.8236 0.0000 0.0000 6.5403 0.0000 0.0000 8.3679 -0.1410 -2.8445 15.0563 0.0000 0.0000 8.3263 0.0000 0.0000 14.8029 -0.8481 -2.3706 18.2887 0.0000 0.0000 10.0641 0.0000 0.0000 20.3211 -1.5688 -0.5940 17.0051 0.0000 0.0000 17.3364 0.0000 0.0000 0.0000 0.0000 0.0000 87.0529 -0.3936 0.4144 4.0253 11.3697 12.8534 177.1439 26.6893 173.0679 -57.1712 -11.2455 -6.2283 4.3944 0.0000 0.0000 6.5634 0.0000 0.0000 8.3857 0.0812 -2.7611 2.9273 0.0000 0.0000 3.0039 0.0000 0.0000 -1.8494 -0.0566 1.2682 10.6364 0.0000 0.0000 5.9706 0.0000 0.0000 -10.0318 -0.5915 0.6098 14.5678 0.0000 0.0000 7.3348 0.0000 0.0000 -23.1748 -1.9009 2.1071 14.5043 0.0000 0.0000 9.8020 0.0000 0.0000 0.0000 0.0000 0.0000 0.0000 0.0000 0.0000 0.0000 0.0000 0.0000 0.0000 0.0000 0.0000 0.0000 0.0000 0.0000 0.0000 0.0000 0.0000
0.0000 95.0000 0.0000 0.0000 0.0000 0.0000 0.0000 0.0000 0.0000 0.0000 0.0000 0.0000 0.0000 0.0000 0.0000 0.0000 0.0000 0.0000 0.0000 0.0000 0.0000 0.0000 0.0000 0.0000 -80.8690 9.7339 11.4131 -7.1850 6.3297 -6.8276 -170.1130 19.2816 174.5399 50.7985 -10.2223 3.8791 11.9007 0.0000 0.0000 2.2833 0.0000 0.0000 -3.4228 0.3466 -1.2705 11.8236 0.0000 0.0000 6.5403 0.0000 0.0000 8.3679 -0.1410 -2.8445 15.0563 0.0000 0.0000 8.3263 0.0000 0.0000 14.8029 -0.8481 -2.3706 18.2887 0.0000 0.0000 10.0641 0.0000 0.0000 20.3211 -1.5688 -0.5940 17.0051 0.0000 0.0000 17.3364 0.0000 0.0000 0.0000 0.0000 0.0000 87.0161 -0.0592 0.0623 4.8707 11.9252 13.6716 177.8187 27.0368 172.9593 -57.1712 -11.2455 -6.2283 4.3944 0.0000 0.0000 6.5634 0.0000 0.0000 8.3857 0.0812 -2.7611 2.9273 0.0000 0.0000 3.0039 0.0000 0.0000 -1.8494 -0.0566 1.2682 10.6364 0.0000 0.0000 5.9706 0.0000 0.0000 -10.0318 -0.5915 0.6098 14.5678 0.0000 0.0000 7.3348 0.0000 0.0000 -23.1748 -1.9009 2.1071 14.5043 0.0000 0.0000 9.8020 0.0000 0.0000 0.0000 0.0000 0.0000 0.0000 0.0000 0.0000 0.0000 0.0000 0.0000 0.0000 0.0000 0.0000 0.0000 0.0000 0.0000 0.0000 0.0000 0.0000
0.0000 95.0000 0.0000 0.0000 0.0000 0.0000 0.0000 0.0000 0.0000 0.0000 0.0000 0.0000 0.0000 0.0000 0.0000 0.0000 0.0000 0.0000 0.0000 0.0000 0.0000 0.0000 0.0000 0.0000 -81.3767 9.3207 10.8323 -6.6656 6.7049 -7.3731 -170.1951 16.4454 174.7730 49.7424 -9.5666 5.8713 10.0378 0.0000 0.0000 3.4673 0.0000 0.0000 -4.0128 0.3684 -1.2842 11.6163 0.0000 0.0000 4.9589 0.0000 0.0000 7.9893 -0.1307 -2.9002 14.1551 0.0000 0.0000 5.9559 0.0000 0.0000 15.0166 -0.8570 -2.5556 17.7724 0.0000 0.0000 10.3225 0.0000 0.0000 20.6939 -1.6495 -1.0717 19.4750 0.0000 0.0000 22.9504 0.0000 0.0000 0.0000 0.0000 0.0000 86.6487 0.2442 -0.2589 6.9526 13.1387 15.6883 184.4244 -0.5290 169.9692 -45.5406 -7.3343 -10.6068 21.6235 0.0000 0.0000 35.1743 0.0000 0.0000 16.6953 0.7938 1.4576 3.4000 0.0000 0.0000 2.4515 0.0000 0.0000 50.2548 2.1814 0.1228 128.1387 0.0000 0.0000 16.2604 0.0000 0.0000 29.4073 1.6620 0.2312 145.9366 0.0000 0.0000 14.5012 0.0000 0.0000 11.3454 -1.9510 6.8125 144.6983 0.0000 0.0000 13.7928 0.0000 0.0000 0.0000 0.0000 0.0000 0.0000 0.0000 0.0000 0.0000 0.0000 0.0000 0.0000 0.0000 0.0000 0.0000 0.0000 0.0000 0.0000 0.0000 0.0000
0.0000 95.0000 0.0000 0.0000 0.0000 0.0000 0.0000 0.0000 0.0000 0.0000 0.0000 0.0000 0.0000 0.0000 0.0000 0.0000 0.0000 0.0000 0.0000 0.0000 0.0000 0.0000 0.0000 0.0000 -80.5053 10.6694 12.5878 -7.4566 7.6816 -8.5034 -169.4610 13.9357 174.3980 50.0074 -9.5602 6.1956 11.6760 0.0000 0.0000 3.2831 0.0000 0.0000 -5.3320 0.3776 -1.0231 11.0673 0.0000 0.0000 3.8392 0.0000 0.0000 6.7633 -0.1182 -2.7717 14.0256 0.0000 0.0000 5.2122 0.0000 0.0000 14.5886 -0.8440 -2.6437 17.3018 0.0000 0.0000 10.1007 0.0000 0.0000 20.7342 -1.6388 -0.9586 18.6287 0.0000 0.0000 20.4604 0.0000 0.0000 0.0000 0.0000 0.0000 86.1514 0.4461 -0.4771 13.3229 15.5574 20.8858 188.5880 -1.0110 167.4389 -48.9049 -8.1720 -11.1557 24.4046 0.0000 0.0000 46.0213 0.0000 0.0000 18.6244 0.8689 2.3274 4.3264 0.0000 0.0000 2.6925 0.0000 0.0000 63.9312 5.0145 -3.2556 112.2316 0.0000 0.0000 12.7570 0.0000 0.0000 18.4633 3.7361 -8.5113 168.4987 0.0000 0.0000 10.3713 0.0000 0.0000 -4.3604 -1.0268 2.6145 147.7353 0.0000 0.0000 14.6667 0.0000 0.0000 0.0000 0.0000 0.0000 0.0000 0.0000 0.0000 0.0000 0.0000 0.0000 0.0000 0.0000 0.0000 0.0000 0.0000 0.0000 0.0000 0.0000 0.0000
0.0000 95.0000 0.0000 0.0000 0.0000 0.0000 0.0000 0.0000 0.0000 0.0000 0.0000 0.0000 0.0000 0.0000 0.0000 0.0000 0.0000 0.0000 0.0000 0.0000 0.0000 0.0000 0.0000 0.0000 -79.7509 11.1569 13.3370 -7.8719 8.2529 -9.2751 -168.7275 10.6704 174.4996 49.5813 -9.5577 5.7361 12.0771 0.0000 0.0000 2.6297 0.0000 0.0000 -6.6531 0.3766 -0.6298 12.1650 0.0000 0.0000 5.1381 0.0000 0.0000 5.4549 -0.1303 -2.0368 15.5834 0.0000 0.0000 5.4596 0.0000 0.0000 12.9830 -0.7779 -2.0907 19.3512 0.0000 0.0000 10.2846 0.0000 0.0000 18.5019 -1.5232 -1.1400 21.4228 0.0000 0.0000 25.1870 0.0000 0.0000 0.0000 0.0000 0.0000 85.3611 -6.7069 7.2717 21.3286 33.2721 51.3788 171.9802 21.3280 140.4431 -55.2194 -9.8510 -11.8933 29.7063 0.0000 0.0000 66.9351 0.0000 0.0000 23.3890 0.9370 4.1417 6.0720 0.0000 0.0000 4.1428 0.0000 0.0000 87.8693 18.2062 -14.1121 78.5780 0.0000 0.0000 9.4396 0.0000 0.0000 -2.4542 3.1698 -26.9228 126.6893 0.0000 0.0000 34.6992 0.0000 0.0000 -25.6717 -1.5074 -5.0108 110.5870 0.0000 0.0000 34.2032 0.0000 0.0000 0.0000 0.0000 0.0000 0.0000 0.0000 0.0000 0.0000 0.0000 0.0000 0.0000 0.0000 0.0000 0.0000 0.0000 0.0000 0.0000 0.0000 0.0000
0.0000 95.0000 0.0000 0.0000 0.0000 0.0000 0.0000 0.0000 0.0000 0.0000 0.0000 0.0000 0.0000 0.0000 0.0000 0.0000 0.0000 0.0000 0.0000 0.0000 0.0000 0.0000 0.0000 0.0000 -79.1747 11.5062 13.8933 -8.1909 8.6553 -9.8348 -168.4951 10.7112 174.5765 49.5813 -9.5577 5.7361 12.0771 0.0000 0.0000 2.6297 0.0000 0.0000 -6.6531 0.3766 -0.6298 12.1650 0.0000 0.0000 5.1381 0.0000 0.0000 5.4549 -0.1303 -2.0368 15.5834 0.0000 0.0000 5.4596 0.0000 0.0000 12.9830 -0.7779 -2.0907 19.3512 0.0000 0.0000 10.2846 0.0000 0.0000 18.5019 -1.5232 -1.1400 21.4228 0.0000 0.0000 25.1870 0.0000 0.0000 0.0000 0.0000 0.0000 83.4869 -11.8709 13.2911 24.9370 48.5966 73.5533 141.2690 27.8147 112.1786 -55.2194 -9.8510 -11.8933 29.7063 0.0000 0.0000 66.9351 0.0000 0.0000 23.3890 0.9370 4.1417 6.0720 0.0000 0.0000 4.1428 0.0000 0.0000 87.8693 18.2062 -14.1121 78.5780 0.0000 0.0000 9.4396 0.0000 0.0000 -2.4542 3.1698 -26.9228 126.6893 0.0000 0.0000 34.6992 0.0000 0.0000 -25.6717 -1.5074 -5.0108 110.5870 0.0000 0.0000 34.2032 0.0000 0.0000 0.0000 0.0000 0.0000 0.0000 0.0000 0.0000 0.0000 0.0000 0.0000 0.0000 0.0000 0.0000 0.0000 0.0000 0.0000 0.0000 0.0000 0.0000
